<svg version="1.2" xmlns="http://www.w3.org/2000/svg" viewBox="0 0 800 800" width="700" height="700">
	<title>original</title>
	<style>
		.s0 { fill: #020617 } 
		.s1 { fill: #ffffff } 
	</style>
	<path id="Shape 1 copy" class="s0" d="m13 193c0-99.4 80.6-180 180-180h415c99.4 0 180 80.6 180 180v415c0 99.4-80.6 180-180 180h-415c-99.4 0-180-80.6-180-180z"/>
	<path id="V" class="s1" aria-label="V"  d="m399.9 625q-18.4 0-27.1-19l-168.6-385.7q-8.1-19.6-1.8-32.3 6.4-12.6 24.2-12.6 20.2 0 27.6 17.8l148 355.2h-6.3l150.8-355.2q4.6-10.3 10.4-13.8 6.3-4 16.7-4 17.2 0 23.6 12.6 6.9 12.1 0 27.1l-170.4 390.9q-4.1 9.2-11 14.4-6.3 4.6-16.1 4.6z"/>
</svg>