<svg version="1.2" xmlns="http://www.w3.org/2000/svg" viewBox="0 0 800 800" width="800" height="800">
	<title>icon</title>
	<style>
		.s0 { fill: #020617 } 
		.s1 { fill: #ffffff } 
	</style>
	<path id="Shape 1 copy" class="s0" d="m13 193c0-99.4 80.6-180 180-180h415c99.4 0 180 80.6 180 180v415c0 99.4-80.6 180-180 180h-415c-99.4 0-180-80.6-180-180z"/>
	<path id="V" class="s1" aria-label="V"  d="m399.5 610q-17.1 0-25.2-17.7l-157.2-359.6q-7.6-18.3-1.6-30.1 5.9-11.8 22.5-11.8 18.8 0 25.8 16.7l137.9 331.1h-5.9l140.6-331.1q4.3-9.7 9.7-12.9 5.9-3.8 15.5-3.8 16.1 0 22 11.8 6.5 11.3 0 25.3l-158.8 364.4q-3.8 8.6-10.2 13.4-5.9 4.3-15.1 4.3z"/>
</svg>